<?xml version="1.0" encoding="utf-8"?>
<!-- Generator: Adobe Illustrator 16.0.0, SVG Export Plug-In . SVG Version: 6.00 Build 0)  -->
<!DOCTYPE svg PUBLIC "-//W3C//DTD SVG 1.1//EN" "http://www.w3.org/Graphics/SVG/1.1/DTD/svg11.dtd">
<svg version="1.1" id="Layer_1" xmlns="http://www.w3.org/2000/svg" xmlns:xlink="http://www.w3.org/1999/xlink" x="0px" y="0px"
	 width="261.063px" height="70.333px" viewBox="0 0 261.063 70.333" enable-background="new 0 0 261.063 70.333"
	 xml:space="preserve">
<rect x="1.532" y="1.486" fill="none" stroke="#2B2E7F" stroke-width="3" stroke-miterlimit="10" width="258.073" height="67.361"/>
<g>
	<path fill="#2B2E7F" d="M52.329,24.035c1.737,0.05,2.686,0.352,2.847,0.906c0.073,0.296,0.006,0.715-0.204,1.257l-6.69,17.56
		l-4.973-11.812l2.422-5.896c0.332-0.813,0.832-1.367,1.497-1.663c0.505-0.234,1.257-0.352,2.255-0.352v-0.721H33.956v0.721
		c1.084,0,1.879,0.117,2.385,0.352c0.641,0.308,1.146,0.912,1.516,1.812l3.068,7.448L36.84,43.758L29.945,26.42
		c-0.16-0.406-0.24-0.758-0.24-1.054c0-0.887,0.689-1.331,2.07-1.331h0.628v-0.721h-9.796v0.721h0.222
		c1.331,0,2.298,0.234,2.902,0.703c0.542,0.431,1.065,1.293,1.57,2.587l7.874,20.147h1.849l4.769-11.7l4.973,11.7h1.812
		l7.615-19.999c0.394-1.035,0.745-1.787,1.053-2.255c0.506-0.789,1.479-1.184,2.921-1.184v-0.721h-7.837V24.035z M40.555,25.44
		c-0.11-0.259-0.166-0.48-0.166-0.666c0-0.492,0.406-0.739,1.22-0.739h1.59c0.764,0,1.146,0.271,1.146,0.813
		c0,0.222-0.067,0.493-0.203,0.813l-1.7,4.159L40.555,25.44z"/>
	<path fill="#2B2E7F" d="M62.125,24.035c1.06,0.063,1.787,0.266,2.182,0.61c0.443,0.395,0.665,1.103,0.665,2.126v16.117
		c0,1.22-0.173,2.046-0.518,2.477c-0.369,0.469-1.146,0.728-2.329,0.776v0.721h9.205v-0.721c-0.851,0-1.51-0.092-1.978-0.277
		c-0.826-0.32-1.238-1.226-1.238-2.717V27.104c0-0.838,0.104-1.479,0.313-1.922c0.346-0.764,1.313-1.146,2.902-1.146v-0.721h-9.205
		V24.035z"/>
	<path fill="#2B2E7F" d="M94.305,24.035c1.011,0.025,1.78,0.111,2.311,0.259c0.937,0.259,1.405,1.109,1.405,2.551v15.064
		L80.184,23.314H74.25v0.721c1.257,0.037,2.316,0.352,3.18,0.943v18.631c0,1.688-1.035,2.532-3.105,2.532h-0.166v0.721h8.798v-0.721
		c-1.121,0-1.94-0.086-2.458-0.259c-0.912-0.283-1.368-1.294-1.368-3.031V26.604l19.611,20.517h0.979V26.014
		c0-0.912,0.376-1.498,1.127-1.757c0.395-0.147,1.165-0.222,2.311-0.222v-0.721h-8.854V24.035z"/>
	<path fill="#2B2E7F" d="M125.801,43.758l-7.91-21.017H114.6l0.333,0.832l-6.895,18.816c-0.432,1.171-0.795,2.009-1.09,2.514
		c-0.456,0.776-1.454,1.189-2.995,1.238v0.721h8.743v-0.721h-0.592c-2.045,0-3.068-0.468-3.068-1.404
		c0-0.21,0.253-1.005,0.758-2.385l2.182-5.933h7.837l2.551,6.875c0.271,0.728,0.406,1.245,0.406,1.553
		c0,0.616-0.369,1.011-1.108,1.184c-0.321,0.073-0.937,0.11-1.849,0.11h-0.979v0.721h10.406v-0.721c-0.666,0-1.195-0.062-1.59-0.185
		C126.886,45.723,126.27,44.99,125.801,43.758z M112.622,34.756l3.217-8.835l3.327,8.835H112.622z"/>
	<path fill="#2B2E7F" d="M145.634,46.53c-2.92,0-5.422-1.14-7.504-3.42c-2.12-2.304-3.18-5.132-3.18-8.483
		c0-2.132,0.419-4.023,1.257-5.675c1.763-3.5,4.763-5.249,9.002-5.249c1.343,0,2.6,0.233,3.771,0.702
		c2.341,0.961,3.962,2.668,4.861,5.12h0.721l-0.352-5.49h-0.554c-0.1,0.148-0.327,0.222-0.685,0.222
		c-0.271,0-0.85-0.153-1.737-0.462c-2.046-0.702-4.128-1.054-6.247-1.054c-2.576,0-4.911,0.546-7.006,1.636
		c-2.095,1.091-3.718,2.601-4.87,4.529s-1.729,4.088-1.729,6.479c0,2.292,0.567,4.361,1.701,6.21
		c1.194,1.947,2.846,3.432,4.953,4.455c1.972,0.948,4.159,1.423,6.562,1.423c0.925,0,1.774-0.056,2.551-0.166
		c2.046-0.37,3.58-0.666,4.603-0.888c0.209-0.024,0.419-0.037,0.629-0.037c0.259,0,0.518,0.019,0.776,0.056
		c0.259-0.431,0.566-0.998,0.924-1.7c0.579-1.184,1.078-2.459,1.497-3.826h-0.721C152.774,44.657,149.7,46.53,145.634,46.53z"/>
	<path fill="#2B2E7F" d="M182.269,26.087c-2.601-2.229-5.73-3.346-9.39-3.346c-2.638,0-5.01,0.549-7.116,1.646
		c-2.157,1.109-3.817,2.649-4.981,4.621c-1.165,1.972-1.747,4.177-1.747,6.617c0,2.304,0.616,4.355,1.849,6.154
		c1.281,1.874,3.006,3.309,5.175,4.307c2.033,0.925,4.245,1.387,6.636,1.387c3.746,0,6.929-1.232,9.547-3.696
		c2.618-2.465,3.928-5.576,3.928-9.335C186.168,31.103,184.868,28.317,182.269,26.087z M181.584,40.967
		c-1.527,3.709-4.227,5.563-8.096,5.563c-1.996,0-3.832-0.518-5.508-1.553c-1.763-1.072-3.118-2.581-4.066-4.528
		c-0.888-1.824-1.331-3.826-1.331-6.008c0-2.686,0.745-5.076,2.236-7.171c1.701-2.379,4.061-3.567,7.079-3.567
		c3.143,0,5.712,1.121,7.708,3.363c1.996,2.243,2.994,5.12,2.994,8.632C182.601,37.547,182.262,39.303,181.584,40.967z"/>
	<path fill="#2B2E7F" d="M238.681,41.226c-0.333,1.121-0.672,1.983-1.017,2.587c-0.642,1.122-1.769,1.683-3.383,1.683h-5.822
		c-0.776,0-1.313-0.151-1.608-0.453s-0.443-0.841-0.443-1.617v-8.077h6.396c0.973,0,1.639,0.265,1.996,0.795
		c0.259,0.382,0.449,1.115,0.573,2.199h0.721v-7.19h-0.721c-0.074,0.925-0.229,1.584-0.462,1.978
		c-0.346,0.58-0.919,0.869-1.72,0.869h-6.783v-9.315h7.985c1.49,0,2.427,1.3,2.809,3.899h0.685l-0.314-5.268h-18.169v0.721h0.831
		c0.851,0,1.491,0.105,1.923,0.314c0.739,0.37,1.108,1.275,1.108,2.717v15.97c0,0.802-0.086,1.418-0.259,1.849
		c-0.345,0.838-1.447,1.257-3.309,1.257h-1.053v0.721h20.109l0.592-5.637H238.681z"/>
	<path fill="#2B2E7F" d="M203.962,35.695c1.303-0.452,2.374-1.134,3.186-2.066c0.962-1.109,1.442-2.415,1.442-3.919
		c0-2.033-0.826-3.647-2.478-4.843c-1.749-1.257-4.307-1.886-7.67-1.886c-1.578,0-3.167,0.037-4.77,0.111
		c-0.542,0.024-1.022,0.05-1.441,0.074c-1.726,0.099-2.834,0.147-3.327,0.147v0.721h0.832c1.109,0,1.86,0.222,2.255,0.666
		c0.395,0.443,0.592,1.232,0.592,2.365V43c0,1.195-0.21,2.018-0.629,2.467c-0.419,0.45-1.22,0.675-2.402,0.675h-0.647v0.721h10.702
		v-0.721h-0.869c-0.751,0-1.337-0.08-1.756-0.24c-0.838-0.32-1.257-1.188-1.257-2.606V36.9c0.789,0.049,1.43,0.073,1.923,0.073
		c0.447,0,1.288-0.023,2.511-0.071c1.721,1.397,11.86,9.634,13.78,11.218c2.101,1.732,6.903,4.777,15.289,3.682
		c-4.816-0.69-9.018-0.746-13.651-4.805C211.25,43.208,204.8,36.562,203.962,35.695z M195.725,36.179V23.776
		c0.444-0.049,1.072-0.073,1.886-0.073c1.86,0,3.339,0.265,4.436,0.794c1.984,0.962,2.977,2.779,2.977,5.453
		c0,4.214-2.317,6.321-6.95,6.321C196.938,36.271,196.156,36.241,195.725,36.179z"/>
</g>
</svg>
